Coordinates
version=1
nRows=9
nColumns=42
inDegrees=yes

Units are S.I. units (second, meters, Newtons, ...)
If the header above contains a line with 'inDegrees', this indicates whether rotational values are in degrees (yes) or radians (no).

endheader
time	pelvis_tilt	pelvis_list	pelvis_rotation	pelvis_tx	pelvis_ty	pelvis_tz	hip_flexion_r	hip_adduction_r	hip_rotation_r	knee_angle_r	knee_adduction_r	knee_angle_r_beta	ankle_angle_r	subtalar_angle_r	mtp_angle_r	hip_flexion_l	hip_adduction_l	hip_rotation_l	knee_angle_l	knee_adduction_l	knee_angle_l_beta	ankle_angle_l	subtalar_angle_l	mtp_angle_l	lumbar_extension	lumbar_bending	lumbar_rotation	arm_flex_r	arm_add_r	arm_rot_r	elbow_flex_r	pro_sup_r	wrist_flex_r	wrist_dev_r	arm_flex_l	arm_add_l	arm_rot_l	elbow_flex_l	pro_sup_l	wrist_flex_l	wrist_dev_l
      0.38000000	      7.99733850	     -0.66610446	     -0.25772238	     -1.39766007	      0.91980534	      0.24221958	     20.89414584	      2.66289485	    -13.98491305	     18.72357854	     -2.97599414	      0.32678809	      9.69895752	     11.59223615	     -8.08229311	    -29.47079446	     -1.89298796	    -22.33575431	     21.24579089	     -3.44001470	      0.37080900	     16.63334598	     33.84130211	     -8.08229311	    -21.98792546	      4.40490528	     -6.40543344	     -5.87145595	     -7.21403307	      3.21403112	     29.48061444	     90.00000001	      0.00000000	      0.00000000	      6.09076766	    -15.14122708	     -8.37142142	     52.86528327	     90.00000001	      0.00000000	      0.00000000
      0.39000000	      8.38178010	     -1.32737387	     -0.43030743	     -1.38042266	      0.92181988	      0.24415489	     20.25620744	      3.53402195	    -13.93187523	     20.50947117	     -3.26145196	      0.35795780	      9.77557571	     11.02494097	     -8.07327570	    -29.36075090	     -2.79264094	    -22.14801819	     23.97631362	     -3.93573957	      0.41846562	     14.09086765	     32.33069525	     -8.07327570	    -22.34471223	      5.08185776	     -6.03739451	     -5.53243743	     -7.40461286	      3.13697779	     29.43840041	     90.00000001	      0.00000000	      0.00000000	      5.46814368	    -14.72280949	     -8.47917297	     52.42220907	     90.00000001	      0.00000000	      0.00000000
      0.40000000	      8.87010498	     -1.89843089	     -0.64562404	     -1.36339629	      0.92449787	      0.24621275	     19.26557392	      4.30167221	    -13.57632028	     21.89102179	     -3.34620553	      0.38207041	     10.06206502	     10.63044569	     -8.06564982	    -29.15350991	     -3.60166163	    -21.83534097	     26.94324180	     -4.39348923	      0.47024828	     11.68090465	     30.45134366	     -8.06564982	    -22.85423865	      5.60952448	     -5.61720688	     -5.17060480	     -7.57115984	      3.07473075	     29.42300124	     90.00000001	      0.00000000	      0.00000000	      4.88818318	    -14.33962762	     -8.52266400	     51.87084532	     90.00000001	      0.00000000	      0.00000000
      0.41000000	      9.38073781	     -2.49807493	     -0.90786516	     -1.34670707	      0.92791891	      0.24841555	     17.85767214	      5.18134728	    -12.54554497	     22.52181287	     -3.17576507	      0.39307979	     10.07172750	      9.52832287	     -8.03351240	    -28.93013205	     -4.34844072	    -20.31920710	     29.89353742	     -4.27717286	      0.52174065	      9.42064651	     26.25976498	     -8.03351240	    -23.46246594	      6.11931843	     -5.10036546	     -4.73756430	     -7.73799273	      2.92076665	     29.41590791	     90.00000001	      0.00000000	      0.00000000	      4.34859888	    -13.93939826	     -8.50200874	     51.21308801	     90.00000001	      0.00000000	      0.00000000
      0.42000000	      9.80649718	     -3.01652073	     -1.26836063	     -1.33026449	      0.93134032	      0.25070810	     16.53716682	      5.93823451	    -11.89289305	     23.14375189	     -3.08489099	      0.40393467	     10.56630188	      9.33190849	     -8.01729288	    -28.25698128	     -5.04402830	    -19.96747427	     33.21534620	     -4.65493464	      0.57971715	      7.40924650	     23.62183726	     -8.01729288	    -23.97966261	      6.48509106	     -4.50079040	     -4.32134867	     -7.90604063	      2.86913441	     29.49788261	     90.00000001	      0.00000000	      0.00000000	      3.80994370	    -13.56603439	     -8.38836149	     50.52237480	     90.00000001	      0.00000000	      0.00000000
      0.43000000	     10.21497667	     -3.17578131	     -1.54031725	     -1.31427358	      0.93504338	      0.25255374	     15.08821328	      6.14488146	    -11.35306033	     23.48798347	     -2.78379811	      0.40994265	     11.35251995	      9.46972835	     -8.00848422	    -27.25409609	     -5.43892461	    -19.84506482	     36.65806957	     -5.25239821	      0.63980401	      6.04963103	     21.77168056	     -8.00848422	    -24.49968611	      6.49555236	     -4.10984752	     -3.89393077	     -8.06882713	      2.84508512	     29.66626861	     90.00000001	      0.00000000	      0.00000000	      3.28910881	    -13.23640486	     -8.22940597	     49.73834807	     90.00000001	      0.00000000	      0.00000000
      0.44000000	     10.27620515	     -3.63000218	     -1.83380849	     -1.29869774	      0.93853776	      0.25465960	     13.82505232	      6.83452473	    -10.75870473	     23.32539966	     -2.68458971	      0.40710502	     12.12192557	      9.67486071	     -7.99641996	    -25.67746048	     -6.13923805	    -19.73659686	     40.26835998	     -5.88006059	      0.70281547	      4.75633318	     18.70292847	     -7.99641996	    -24.69159975	      6.79419011	     -3.51533687	     -3.46978970	     -8.25991875	      2.81289533	     29.81499416	     90.00000001	      0.00000000	      0.00000000	      2.81547102	    -12.83643526	     -7.90405104	     48.85665612	     90.00000001	      0.00000000	      0.00000000
      0.45000000	     10.37793364	     -3.88052941	     -2.13498391	     -1.28336054	      0.94228631	      0.25678866	     12.39323366	      7.24727008	    -10.20306872	     22.92401441	     -2.49754652	      0.40009953	     12.76546946	      9.92217036	     -7.98356279	    -24.06235763	     -6.66666925	    -19.54969385	     43.66103198	     -6.36087875	      0.76202876	      4.06867170	     15.82262133	     -7.98356279	    -24.91490361	      6.83801452	     -2.98137586	     -3.06104429	     -8.41162220	      2.78874225	     30.04718867	     90.00000001	      0.00000000	      0.00000000	      2.36268811	    -12.54508033	     -7.54273255	     47.90807615	     90.00000001	      0.00000000	      0.00000000
      0.46000000	     10.48705533	     -4.03201348	     -2.41511465	     -1.26829096	      0.94619869	      0.25879865	     10.83757166	      7.53149621	     -9.70403514	     22.26150473	     -2.31727831	      0.38853655	     13.41053420	     10.29298271	     -7.97042768	    -22.35970487	     -7.07577457	    -19.47516897	     46.77222321	     -6.91185764	      0.81632929	      3.72456815	     13.12442881	     -7.97042768	    -25.13993586	      6.77210600	     -2.45542584	     -2.65323048	     -8.58373534	      2.79103369	     30.32846671	     90.00000001	      0.00000000	      0.00000000	      1.93907459	    -12.26659509	     -7.08720420	     46.93271119	     90.00000001	      0.00000000	      0.00000000
